<?xml version="1.0" encoding="UTF-8"?>
<svg version="1.1" viewBox="0 0 1024 1024" xmlns="http://www.w3.org/2000/svg">
 <g stroke-width="28.445">
  <path d="m295.19 84.814c66.647 66.647 46.537 154.6-20.111 221.25-66.647 66.647-154.6 86.758-221.25 20.111-66.647-66.647-69.094-212.49-20.111-261.47 48.983-48.983 194.82-46.537 261.47 20.111z" fill="#d4d4d4"/>
  <path d="m247.32 124.5c44.432 44.432 24.321 96.373-20.111 140.8-44.432 44.432-96.373 64.542-140.8 20.111-44.432-44.432-40.222-160.92-20.082-181.03 20.139-20.111 136.59-24.321 181 20.111z" fill="#727272"/>
  <path d="m728.81 84.814c-66.647 66.647-46.537 154.6 20.111 221.25 66.647 66.647 154.6 86.758 221.25 20.111 66.647-66.647 69.094-212.49 20.111-261.47-48.983-48.983-194.82-46.537-261.47 20.111z" fill="#d4d4d4"/>
  <path d="m776.68 124.5c-44.432 44.432-24.321 96.373 20.111 140.8 44.432 44.432 96.373 64.542 140.8 20.111 44.432-44.432 40.222-160.92 20.111-181.03-20.139-20.111-136.62-24.321-181.03 20.111z" fill="#727272"/>
  <path d="m967.61 424.11s28.445-369.79-455.13-369.79c-488.63 0-455.13 341.34-455.13 341.34 0 369.79 312.9 540.46 455.13 540.46s455.13-142.23 455.13-512.02z" fill="#e6e6e6"/>
  <circle cx="512" cy="850.79" r="113.78" fill="#656565"/>
  <path d="m512 424.11c-142.23 0-199.12 275.55-199.12 369.79 0 94.239 56.891 199.12 199.12 199.12s199.12-104.88 199.12-199.12c0-94.239-56.891-369.79-199.12-369.79z" fill="#d4d4d4"/>
  <path d="m414.69 688.59c-52.709 32.428 32.428 162.2 97.312 162.2s150.05-129.77 97.312-162.2c-52.709-32.456-141.91-32.456-194.62 0z" fill="#2a2a2a"/>
  <path d="m455.11 907.68s2.7023 56.891 59.593 56.891c56.891 0 59.593-56.891 59.593-56.891s-59.593 4.4944-59.593-56.891c0 28.445-59.593 56.891-59.593 56.891z" fill="#656565"/>
  <path d="m455.11 921.9c-48.158 0-68.383-34.106-69.208-35.557-3.9254-6.7984-1.5929-15.503 5.2055-19.457 6.8269-3.9255 15.474-1.593 19.428 5.2339 0.45512 0.73958 13.341 21.334 44.574 21.334 37.32 0 42.298-39.511 42.725-44.005 0.76802-7.7656 7.8794-13.17 15.474-12.8 7.794 0.73957 13.54 7.6234 12.857 15.389-2.1618 24.179-19.77 69.862-71.056 69.862z" fill="#2e2e2e"/>
  <path d="m568.89 921.9c-51.287 0-68.895-45.683-71.056-69.862-0.68269-7.794 5.0917-14.735 12.914-15.417 7.9932-0.3129 14.763 5.0917 15.417 12.914 0.42669 4.409 5.4046 43.92 42.725 43.92 31.233 0 44.119-20.594 44.631-21.476 4.0677-6.6277 12.744-8.9034 19.457-4.921s9.0172 12.516 5.1202 19.286c-0.85335 1.4507-21.078 35.557-69.208 35.557z" fill="#2e2e2e"/>
  <path d="m725.34 537.89c-23.467 0-42.668-19.201-42.668-42.668v-28.445c0-23.467 19.201-42.668 42.668-42.668s42.668 19.201 42.668 42.668v28.445c0 23.467-19.201 42.668-42.668 42.668zm-426.68 0c-23.467 0-42.668-19.201-42.668-42.668v-28.445c0-23.467 19.201-42.668 42.668-42.668s42.668 19.201 42.668 42.668v28.445c0 23.467-19.201 42.668-42.668 42.668z" fill="#2a2a2a"/>
 </g>
</svg>
